<svg id="aaa3b780-79b8-4fe8-bcdd-5d08cce74206" data-name="Layer 1" xmlns="http://www.w3.org/2000/svg" viewBox="0 0 205.08 253.9">
  <polygon points="70.14 53 49.71 53 49.71 31.99 70.14 53" fill="#003049"/>
  <path d="M353.56,341.05V345a19,19,0,0,1-19,19H297.22l-29.35-41.92h66.69A19,19,0,0,1,353.56,341.05Z" transform="translate(-203.46 -269.05)" fill="none"/>
  <path d="M353.56,341.05V345a19,19,0,0,1-19,19H297.22l-29.35-41.92h66.69A19,19,0,0,1,353.56,341.05Z" transform="translate(-203.46 -269.05)" fill="none"/>
  <path d="M257.46,416v53h-53v-58.6A71.87,71.87,0,0,0,232.37,416Z" transform="translate(-203.46 -269.05)" fill="#003049"/>
  <rect x="1" y="198.91" width="53" height="52.99" fill="#003049"/>
  <path d="M406.56,341.05V345A71.3,71.3,0,0,1,404,364a72,72,0,0,1-69.45,53H269.93l-13.47-19.22V364h78.1a19,19,0,0,0,19-19v-3.92a19,19,0,0,0-19-19H267.87l-11.41-16.28v16.28h-53l27.29-53H334.56a72,72,0,0,1,69.45,53A71.3,71.3,0,0,1,406.56,341.05Z" transform="translate(-203.46 -269.05)" fill="#003049"/>
  <path d="M257.46,364v53H232.37a71.87,71.87,0,0,1-27.91-5.61V364Z" transform="translate(-203.46 -269.05)" fill="#003049"/>
  <polygon points="205.08 253.9 140.68 253.9 138.46 250.73 103.58 200.91 167.97 200.91 184.56 224.6 205.08 253.9" fill="#d52a28"/>
  <polygon points="68.99 147.92 53 147.92 53 125.82 68.99 147.92" fill="#003049"/>
  <path d="M230.76,269.06h0Z" transform="translate(-203.46 -269.05)" fill="none"/>
  <polygon points="187.8 229.22 123.4 229.22 121.18 226.05 86.3 176.23 150.69 176.23 167.28 199.92 187.8 229.22" fill="#d52a28"/>
</svg>
